<?xml version="1.0" encoding="utf-8"?>
<!-- Svg Vector Icons : http://www.onlinewebfonts.com/icon -->
<!DOCTYPE svg PUBLIC "-//W3C//DTD SVG 1.1//EN" "http://www.w3.org/Graphics/SVG/1.1/DTD/svg11.dtd">
<svg version="1.1" xmlns="http://www.w3.org/2000/svg" xmlns:xlink="http://www.w3.org/1999/xlink" x="0px" y="0px" viewBox="0 0 1000 1000" enable-background="new 0 0 1000 1000" xml:space="preserve">
<metadata> Svg Vector Icons : http://www.onlinewebfonts.com/icon </metadata>
<g><g transform="translate(0.000000,511.000000) scale(0.100000,-0.100000)"><path d="M4297.8,4543.6c-342.5-51.2-744.4-153.7-1024.9-261.6C1002,3402.7-281.7,1034.7,201-1384.5c218.5-1086.9,873.8-2168.4,1731.5-2856.2c129.5-105.2,175.3-124.1,269.7-124.1c153.7,2.7,202.3,35.1,388.4,269.7c453.1,571.8,1065.3,957.5,1774.7,1122c167.2,40.4,315.6,51.2,660.8,48.5c388.4-2.7,477.4-10.8,709.3-72.8C6388-3170,6984.1-3563.7,7407.5-4095c186.1-234.6,234.6-267,388.4-269.7c102.5,0,137.5,18.9,350.6,196.9c534,447.7,941.3,976.3,1259.5,1637.1c881.9,1834,563.7,4007.8-801,5526.2C7841.8,3839.7,6808.8,4387.2,5665.2,4549C5317.3,4597.5,4635,4597.5,4297.8,4543.6z M5379.4,3912.5c1113.9-110.6,2076.7-604.1,2794.1-1424c768.7-879.2,1154.3-2036.3,1059.9-3185.2c-83.6-1038.4-496.3-1955.4-1205.6-2678.2l-205-207.7l-275.1,264.3c-283.2,272.4-644.6,536.7-954.8,693.2c-577.1,288.6-1270.3,423.4-1896,364.1c-865.7-80.9-1585.9-418-2235.8-1046.5l-285.9-275.1l-205,207.7c-248.1,253.5-334.4,361.4-517.8,641.9C198.3-818.1,664.9,1752.1,2515.1,3122.2c439.6,326.3,1041.1,596.1,1583.2,712C4581,3936.7,4939.7,3958.3,5379.4,3912.5z"/><path d="M7286.2,2315.8c-37.7-21.6-496.2-291.3-1016.8-598.8L5320,1158.8l-329-5.4c-277.8-5.4-358.7-18.9-515.1-78.2c-480.1-178-855-609.5-960.2-1100.4c-51.2-226.5-21.6-671.5,53.9-873.8c331.7-881.9,1316.2-1262.2,2141.4-828c463.9,242.7,755.2,706.6,790.2,1259.5l16.2,242.7l606.8,1051.8c693.1,1200.2,701.2,1224.5,542.1,1399.8C7558.6,2342.8,7404.8,2377.9,7286.2,2315.8z M6501.3,1064.4c-5.4-13.5-153.8-267-326.3-566.4L5862.1-46.8v-242.7c0-291.3-59.3-474.7-207.7-647.3c-415.3-488.2-1165.1-385.7-1440.2,199.6c-205,428.8-13.5,965.5,420.7,1173.2c137.6,64.7,207.7,70.1,714.7,48.5c110.6-5.4,167.2,21.6,633.8,296.7c280.5,167.2,515.1,302.1,520.5,302.1C6509.4,1083.3,6506.7,1075.2,6501.3,1064.4z"/></g></g>
</svg>